<?xml version="1.0" encoding="utf-8" ?>
<svg baseProfile="tiny" height="225px" version="1.2" width="225px" xmlns="http://www.w3.org/2000/svg" xmlns:ev="http://www.w3.org/2001/xml-events" xmlns:xlink="http://www.w3.org/1999/xlink"><defs /><path d="M 111 147 L 110 148 L 108 148 L 107 149 L 106 149 L 103 152 L 103 153 L 102 154 L 102 157 L 101 158 L 101 165 L 102 166 L 101 167 L 98 167 L 97 166 L 96 166 L 95 165 L 94 165 L 92 163 L 91 163 L 90 162 L 87 165 L 86 165 L 86 166 L 88 168 L 89 168 L 91 170 L 92 170 L 93 171 L 95 171 L 96 172 L 97 172 L 98 173 L 100 173 L 101 174 L 105 174 L 106 175 L 118 175 L 119 174 L 123 174 L 124 173 L 126 173 L 127 172 L 128 172 L 129 171 L 131 171 L 132 170 L 133 170 L 135 168 L 136 168 L 138 166 L 138 165 L 137 165 L 134 162 L 133 163 L 132 163 L 130 165 L 129 165 L 128 166 L 127 166 L 126 167 L 123 167 L 122 166 L 122 159 L 123 158 L 122 157 L 122 154 L 121 153 L 121 152 L 118 149 L 117 149 L 116 148 L 114 148 L 113 147 Z" fill="white" /><path d="M 134 95 L 134 102 L 135 103 L 136 103 L 141 108 L 141 109 L 144 112 L 144 113 L 145 114 L 145 115 L 146 116 L 146 117 L 147 118 L 147 120 L 148 121 L 148 123 L 149 124 L 149 140 L 148 141 L 148 143 L 147 144 L 147 146 L 146 147 L 149 150 L 150 150 L 151 151 L 151 149 L 152 148 L 152 147 L 153 146 L 153 144 L 154 143 L 154 139 L 155 138 L 155 126 L 154 125 L 154 121 L 153 120 L 153 118 L 152 117 L 152 115 L 151 114 L 151 113 L 150 112 L 150 111 L 148 109 L 148 108 L 146 106 L 146 105 L 139 98 L 138 98 L 136 96 L 135 96 Z" fill="white" /><path d="M 90 95 L 89 96 L 88 96 L 86 98 L 85 98 L 78 105 L 78 106 L 76 108 L 76 109 L 74 111 L 74 112 L 73 113 L 73 114 L 72 115 L 72 117 L 71 118 L 71 120 L 70 121 L 70 125 L 69 126 L 69 138 L 70 139 L 70 143 L 71 144 L 71 146 L 72 147 L 72 149 L 73 150 L 73 151 L 74 150 L 75 150 L 78 147 L 77 146 L 77 144 L 76 143 L 76 141 L 75 140 L 75 124 L 76 123 L 76 121 L 77 120 L 77 118 L 78 117 L 78 116 L 79 115 L 79 114 L 80 113 L 80 112 L 83 109 L 83 108 L 88 103 L 89 103 L 90 102 Z" fill="white" /><path d="M 109 49 L 109 58 L 108 59 L 101 59 L 101 64 L 108 64 L 109 65 L 109 123 L 104 128 L 103 127 L 103 84 L 100 87 L 100 88 L 97 91 L 97 135 L 81 151 L 80 151 L 80 152 L 78 154 L 77 154 L 68 163 L 70 165 L 71 165 L 72 166 L 74 166 L 105 135 L 106 135 L 112 129 L 118 135 L 119 135 L 150 166 L 152 166 L 153 165 L 154 165 L 156 163 L 143 150 L 142 150 L 127 135 L 127 91 L 124 88 L 124 87 L 121 84 L 121 127 L 120 128 L 115 123 L 115 65 L 116 64 L 123 64 L 123 59 L 116 59 L 115 58 L 115 49 Z" fill="white" /></svg>